<?xml version="1.0" standalone="no"?>
<!DOCTYPE svg PUBLIC "-//W3C//DTD SVG 20010904//EN"
 "http://www.w3.org/TR/2001/REC-SVG-20010904/DTD/svg10.dtd">
<svg version="1.0" xmlns="http://www.w3.org/2000/svg"
 width="950.000000pt" height="950.000000pt" viewBox="0 0 950.000000 950.000000"
 preserveAspectRatio="xMidYMid meet">
<metadata>
Created by potrace 1.11, written by Peter Selinger 2001-2013
</metadata>
<g transform="translate(0.000000,950.000000) scale(0.100000,-0.100000)"
fill="#000000" stroke="none">
<path d="M4489 9396 c-2 -2 -49 -6 -104 -10 -55 -3 -111 -8 -125 -10 -21 -4
-95 -13 -160 -21 -42 -5 -141 -21 -220 -36 -30 -6 -68 -13 -85 -16 -99 -17
-492 -125 -560 -153 -11 -5 -63 -24 -115 -43 -351 -129 -729 -329 -1050 -555
-282 -200 -476 -372 -771 -682 -8 -9 -55 -63 -103 -121 -420 -498 -719 -1052
-907 -1679 -12 -41 -23 -79 -25 -85 -1 -5 -13 -55 -27 -110 -46 -181 -81 -380
-111 -624 -28 -223 -29 -767 -1 -981 1 -14 6 -48 9 -75 4 -28 9 -70 12 -95 12
-95 45 -274 69 -375 9 -38 18 -77 20 -85 2 -8 13 -51 25 -95 12 -44 25 -93 30
-110 29 -117 132 -392 213 -575 81 -181 253 -505 293 -551 8 -8 14 -19 14 -23
0 -10 163 -247 239 -346 169 -222 392 -464 590 -640 41 -36 79 -70 85 -75 90
-84 408 -318 555 -409 366 -226 724 -388 1126 -510 178 -54 337 -94 435 -110
19 -3 69 -12 110 -20 41 -8 98 -17 125 -21 69 -8 137 -17 156 -20 9 -2 63 -6
120 -10 57 -4 115 -9 129 -11 29 -5 459 -5 541 0 61 4 190 16 229 21 14 2 54
6 90 10 115 12 381 63 550 106 881 221 1675 699 2300 1384 46 51 165 193 231
275 50 62 222 309 254 362 5 10 37 61 69 115 153 252 321 621 417 918 41 124
99 333 114 405 24 118 56 284 60 315 3 23 7 51 10 64 2 13 7 46 10 75 4 28 8
65 10 81 28 226 28 872 0 1016 -3 12 -7 47 -10 78 -3 31 -7 65 -9 76 -2 11 -7
42 -10 69 -4 28 -13 79 -21 115 -7 36 -16 82 -19 101 -3 19 -24 105 -46 190
-22 85 -42 164 -45 175 -13 55 -93 284 -136 392 -285 716 -713 1317 -1304
1829 -342 296 -793 575 -1212 750 -18 8 -48 20 -65 28 -127 55 -560 192 -661
210 -15 3 -35 7 -45 10 -9 3 -28 7 -42 10 -14 3 -61 12 -105 20 -123 24 -135
26 -215 37 -41 5 -86 12 -100 14 -14 2 -54 7 -90 10 -36 3 -83 8 -105 11 -47
6 -631 15 -636 10z"/>
</g>
</svg>
